<svg xmlns="http://www.w3.org/2000/svg" width="1800" height="1320" viewBox="0 0 1800 1320">
<rect id="canvas" width="1800" height="1320" fill="#EEF2F6"/>
<text id="board-title" x="70" y="70" fill="#102A43" font-family="Arial" font-size="32" font-weight="700">SIGPRA / flujo de practica academica</text>
<text id="board-subtitle" x="70" y="105" fill="#627D98" font-family="Arial" font-size="17">Prototipo nuevo de mediana fidelidad · archivo editable para Figma</text>

<g id="screen-01-login">
<rect x="70" y="150" width="390" height="500" rx="10" fill="#FFFFFF" stroke="#BCCCDC" stroke-width="2"/>
<rect x="70" y="150" width="390" height="82" rx="10" fill="#102A43"/><rect x="70" y="210" width="390" height="22" fill="#102A43"/>
<text x="102" y="201" fill="#FFFFFF" font-family="Arial" font-size="26" font-weight="700">SIGPRA</text><text x="102" y="285" fill="#102A43" font-family="Arial" font-size="22" font-weight="700">Acceso al sistema</text>
<text x="102" y="323" fill="#627D98" font-family="Arial" font-size="14">Ingresa con tu cuenta institucional</text>
<text x="102" y="365" fill="#334E68" font-family="Arial" font-size="14">Correo institucional</text><rect x="102" y="378" width="326" height="38" rx="4" fill="#FFFFFF" stroke="#829AB1" stroke-width="2"/>
<text x="102" y="452" fill="#334E68" font-family="Arial" font-size="14">Contrasena</text><rect x="102" y="465" width="326" height="38" rx="4" fill="#FFFFFF" stroke="#829AB1" stroke-width="2"/>
<rect x="102" y="535" width="326" height="42" rx="4" fill="#00A3A3"/><text x="265" y="562" text-anchor="middle" fill="#FFFFFF" font-family="Arial" font-size="15" font-weight="700">Iniciar sesion</text>
<text x="265" y="615" text-anchor="middle" fill="#007C83" font-family="Arial" font-size="14">Crear cuenta de estudiante</text>
<text x="92" y="682" fill="#627D98" font-family="Arial" font-size="16" font-weight="700">01 / inicio de sesion</text>
</g>

<g id="screen-02-register">
<rect x="500" y="150" width="390" height="500" rx="10" fill="#FFFFFF" stroke="#BCCCDC" stroke-width="2"/><rect x="500" y="150" width="390" height="82" rx="10" fill="#00A3A3"/><rect x="500" y="210" width="390" height="22" fill="#00A3A3"/>
<text x="532" y="201" fill="#FFFFFF" font-family="Arial" font-size="26" font-weight="700">Nuevo registro</text><text x="532" y="285" fill="#102A43" font-family="Arial" font-size="22" font-weight="700">Crear cuenta</text>
<text x="532" y="323" fill="#627D98" font-family="Arial" font-size="14">Solo disponible para estudiantes</text>
<text x="532" y="365" fill="#334E68" font-family="Arial" font-size="14">Nombre completo</text><rect x="532" y="378" width="326" height="34" rx="4" fill="#FFFFFF" stroke="#829AB1" stroke-width="2"/>
<text x="532" y="447" fill="#334E68" font-family="Arial" font-size="14">Correo institucional</text><rect x="532" y="460" width="326" height="34" rx="4" fill="#FFFFFF" stroke="#829AB1" stroke-width="2"/>
<text x="532" y="529" fill="#334E68" font-family="Arial" font-size="14">Contrasena</text><rect x="532" y="542" width="326" height="34" rx="4" fill="#FFFFFF" stroke="#829AB1" stroke-width="2"/>
<text x="532" y="615" fill="#007C83" font-family="Arial" font-size="14" font-weight="700">Volver al inicio</text><text x="692" y="682" text-anchor="middle" fill="#627D98" font-family="Arial" font-size="16" font-weight="700">02 / autoregistro</text>
</g>

<g id="screen-03-student-dashboard">
<rect x="930" y="150" width="390" height="500" rx="10" fill="#FFFFFF" stroke="#BCCCDC" stroke-width="2"/><rect x="930" y="150" width="92" height="500" rx="10" fill="#102A43"/><rect x="930" y="150" width="92" height="30" fill="#102A43"/>
<text x="944" y="205" fill="#FFFFFF" font-family="Arial" font-size="15" font-weight="700">SIGPRA</text><text x="945" y="270" fill="#9FB3C8" font-family="Arial" font-size="12">Inicio</text><text x="945" y="310" fill="#FFFFFF" font-family="Arial" font-size="12">Bitacora</text><text x="945" y="350" fill="#9FB3C8" font-family="Arial" font-size="12">Archivos</text>
<text x="1050" y="205" fill="#102A43" font-family="Arial" font-size="20" font-weight="700">Mi practica</text><text x="1050" y="235" fill="#627D98" font-family="Arial" font-size="13">Hola, Maria. Este es tu avance.</text>
<rect x="1050" y="270" width="112" height="82" rx="6" fill="#D9F0F0"/><text x="1064" y="296" fill="#007C83" font-family="Arial" font-size="12">Horas aprobadas</text><text x="1064" y="334" fill="#102A43" font-family="Arial" font-size="25" font-weight="700">72 / 120</text>
<rect x="1180" y="270" width="112" height="82" rx="6" fill="#FFF3C4"/><text x="1194" y="296" fill="#8D5B00" font-family="Arial" font-size="12">Pendientes</text><text x="1194" y="334" fill="#102A43" font-family="Arial" font-size="25" font-weight="700">02</text>
<text x="1050" y="395" fill="#334E68" font-family="Arial" font-size="14" font-weight="700">Practica actual</text><rect x="1050" y="410" width="242" height="42" rx="4" fill="#FFFFFF" stroke="#BCCCDC" stroke-width="2"/><text x="1062" y="436" fill="#334E68" font-family="Arial" font-size="12">I.E. Central · periodo 2026-2</text><rect x="1050" y="480" width="116" height="38" rx="4" fill="#00A3A3"/><text x="1108" y="504" text-anchor="middle" fill="#FFFFFF" font-family="Arial" font-size="12" font-weight="700">Nueva actividad</text><text x="1030" y="682" fill="#627D98" font-family="Arial" font-size="16" font-weight="700">03 / dashboard estudiante</text>
</g>

<g id="screen-04-logbook">
<rect x="1360" y="150" width="370" height="500" rx="10" fill="#FFFFFF" stroke="#BCCCDC" stroke-width="2"/><rect x="1360" y="150" width="370" height="66" rx="10" fill="#102A43"/><text x="1390" y="191" fill="#FFFFFF" font-family="Arial" font-size="21" font-weight="700">Nueva actividad</text>
<text x="1390" y="260" fill="#334E68" font-family="Arial" font-size="14">Fecha</text><rect x="1390" y="273" width="310" height="34" rx="4" fill="#FFFFFF" stroke="#829AB1" stroke-width="2"/><text x="1390" y="345" fill="#334E68" font-family="Arial" font-size="14">Actividad</text><rect x="1390" y="358" width="310" height="34" rx="4" fill="#FFFFFF" stroke="#829AB1" stroke-width="2"/><text x="1390" y="430" fill="#334E68" font-family="Arial" font-size="14">Descripcion</text><rect x="1390" y="443" width="310" height="70" rx="4" fill="#FFFFFF" stroke="#829AB1" stroke-width="2"/><text x="1390" y="550" fill="#334E68" font-family="Arial" font-size="14">Horas reportadas</text><rect x="1390" y="563" width="120" height="34" rx="4" fill="#FFFFFF" stroke="#829AB1" stroke-width="2"/><rect x="1570" y="563" width="130" height="34" rx="4" fill="#00A3A3"/><text x="1635" y="585" text-anchor="middle" fill="#FFFFFF" font-family="Arial" font-size="12" font-weight="700">Guardar</text><text x="1390" y="682" fill="#627D98" font-family="Arial" font-size="16" font-weight="700">04 / registrar bitacora</text>
</g>

<g id="screen-05-teacher">
<rect x="70" y="760" width="390" height="500" rx="10" fill="#FFFFFF" stroke="#BCCCDC" stroke-width="2"/><rect x="70" y="760" width="390" height="66" rx="10" fill="#102A43"/><text x="100" y="801" fill="#FFFFFF" font-family="Arial" font-size="21" font-weight="700">Panel docente</text><text x="100" y="875" fill="#627D98" font-family="Arial" font-size="13">Pendientes de validacion</text><text x="100" y="925" fill="#102A43" font-family="Arial" font-size="42" font-weight="700">08</text><rect x="100" y="970" width="330" height="54" rx="5" fill="#FFF3C4"/><text x="118" y="993" fill="#8D5B00" font-family="Arial" font-size="12" font-weight="700">Maria Perez</text><text x="118" y="1012" fill="#334E68" font-family="Arial" font-size="12">Planeacion de clase · 6 horas</text><rect x="100" y="1042" width="330" height="54" rx="5" fill="#F0F4F8"/><text x="118" y="1065" fill="#334E68" font-family="Arial" font-size="12" font-weight="700">Juan Rueda</text><text x="118" y="1084" fill="#627D98" font-family="Arial" font-size="12">Refuerzo pedagogico · 4 horas</text><rect x="100" y="1125" width="150" height="38" rx="4" fill="#00A3A3"/><text x="175" y="1149" text-anchor="middle" fill="#FFFFFF" font-family="Arial" font-size="12" font-weight="700">Revisar pendientes</text><text x="92" y="1292" fill="#627D98" font-family="Arial" font-size="16" font-weight="700">05 / dashboard docente</text>
</g>

<g id="screen-06-validation">
<rect x="500" y="760" width="390" height="500" rx="10" fill="#FFFFFF" stroke="#BCCCDC" stroke-width="2"/><rect x="500" y="760" width="390" height="66" rx="10" fill="#00A3A3"/><text x="530" y="801" fill="#FFFFFF" font-family="Arial" font-size="21" font-weight="700">Validar bitacora</text><text x="530" y="875" fill="#627D98" font-family="Arial" font-size="13">Estudiante</text><text x="530" y="902" fill="#102A43" font-family="Arial" font-size="18" font-weight="700">Maria Perez</text><text x="530" y="950" fill="#627D98" font-family="Arial" font-size="13">Actividad</text><text x="530" y="976" fill="#334E68" font-family="Arial" font-size="15">Planeacion de clase</text><text x="530" y="1023" fill="#627D98" font-family="Arial" font-size="13">Observacion</text><rect x="530" y="1037" width="330" height="70" rx="4" fill="#FFFFFF" stroke="#829AB1" stroke-width="2"/><rect x="530" y="1140" width="155" height="38" rx="4" fill="#16825D"/><text x="607" y="1164" text-anchor="middle" fill="#FFFFFF" font-family="Arial" font-size="12" font-weight="700">Aprobar</text><rect x="705" y="1140" width="155" height="38" rx="4" fill="#C05640"/><text x="782" y="1164" text-anchor="middle" fill="#FFFFFF" font-family="Arial" font-size="12" font-weight="700">Rechazar</text><text x="522" y="1292" fill="#627D98" font-family="Arial" font-size="16" font-weight="700">06 / validar actividad</text>
</g>

<g id="screen-07-director">
<rect x="930" y="760" width="390" height="500" rx="10" fill="#FFFFFF" stroke="#BCCCDC" stroke-width="2"/><rect x="930" y="760" width="92" height="500" rx="10" fill="#102A43"/><text x="944" y="815" fill="#FFFFFF" font-family="Arial" font-size="15" font-weight="700">SIGPRA</text><text x="945" y="875" fill="#FFFFFF" font-family="Arial" font-size="12">Resumen</text><text x="945" y="915" fill="#9FB3C8" font-family="Arial" font-size="12">Asignaciones</text><text x="945" y="955" fill="#9FB3C8" font-family="Arial" font-size="12">Reportes</text><text x="1050" y="815" fill="#102A43" font-family="Arial" font-size="20" font-weight="700">Panel director</text><rect x="1050" y="870" width="112" height="82" rx="6" fill="#D9F0F0"/><text x="1064" y="896" fill="#007C83" font-family="Arial" font-size="12">Practicas</text><text x="1064" y="934" fill="#102A43" font-family="Arial" font-size="25" font-weight="700">34</text><rect x="1180" y="870" width="112" height="82" rx="6" fill="#FFF3C4"/><text x="1194" y="896" fill="#8D5B00" font-family="Arial" font-size="12">Por cerrar</text><text x="1194" y="934" fill="#102A43" font-family="Arial" font-size="25" font-weight="700">03</text><text x="1050" y="1000" fill="#334E68" font-family="Arial" font-size="14" font-weight="700">Acciones frecuentes</text><rect x="1050" y="1020" width="242" height="38" rx="4" fill="#00A3A3"/><text x="1171" y="1044" text-anchor="middle" fill="#FFFFFF" font-family="Arial" font-size="12" font-weight="700">Crear asignacion</text><rect x="1050" y="1075" width="242" height="38" rx="4" fill="#F0F4F8"/><text x="1171" y="1099" text-anchor="middle" fill="#334E68" font-family="Arial" font-size="12" font-weight="700">Abrir reportes</text><text x="952" y="1292" fill="#627D98" font-family="Arial" font-size="16" font-weight="700">07 / dashboard director</text>
</g>

<g id="screen-08-assignment">
<rect x="1360" y="760" width="370" height="500" rx="10" fill="#FFFFFF" stroke="#BCCCDC" stroke-width="2"/><rect x="1360" y="760" width="370" height="66" rx="10" fill="#102A43"/><text x="1390" y="801" fill="#FFFFFF" font-family="Arial" font-size="21" font-weight="700">Nueva asignacion</text><text x="1390" y="875" fill="#334E68" font-family="Arial" font-size="14">Estudiante</text><rect x="1390" y="888" width="310" height="34" rx="4" fill="#FFFFFF" stroke="#829AB1" stroke-width="2"/><text x="1390" y="965" fill="#334E68" font-family="Arial" font-size="14">Docente asesor</text><rect x="1390" y="978" width="310" height="34" rx="4" fill="#FFFFFF" stroke="#829AB1" stroke-width="2"/><text x="1390" y="1055" fill="#334E68" font-family="Arial" font-size="14">Entidad receptora</text><rect x="1390" y="1068" width="310" height="34" rx="4" fill="#FFFFFF" stroke="#829AB1" stroke-width="2"/><text x="1390" y="1145" fill="#334E68" font-family="Arial" font-size="14">Periodo academico</text><rect x="1390" y="1158" width="130" height="34" rx="4" fill="#FFFFFF" stroke="#829AB1" stroke-width="2"/><rect x="1570" y="1158" width="130" height="34" rx="4" fill="#00A3A3"/><text x="1635" y="1180" text-anchor="middle" fill="#FFFFFF" font-family="Arial" font-size="12" font-weight="700">Asignar</text><text x="1390" y="1292" fill="#627D98" font-family="Arial" font-size="16" font-weight="700">08 / asignar practica</text>
</g>
</svg>
